<?xml version="1.0" encoding="UTF-8" standalone="no"?>
<!-- Generator: Adobe Illustrator 16.0.0, SVG Export Plug-In . SVG Version: 6.00 Build 0)  -->

<svg
   xmlns:dc="http://purl.org/dc/elements/1.1/"
   xmlns:cc="http://creativecommons.org/ns#"
   xmlns:rdf="http://www.w3.org/1999/02/22-rdf-syntax-ns#"
   xmlns:svg="http://www.w3.org/2000/svg"
   xmlns="http://www.w3.org/2000/svg"
   xmlns:sodipodi="http://sodipodi.sourceforge.net/DTD/sodipodi-0.dtd"
   xmlns:inkscape="http://www.inkscape.org/namespaces/inkscape"
   version="1.1"
   id="Capa_1"
   x="0px"
   y="0px"
   width="488.152px"
   height="488.152px"
   viewBox="0 0 488.152 488.152"
   style="enable-background:new 0 0 488.152 488.152;"
   xml:space="preserve"
   sodipodi:docname="date.svg"
   inkscape:version="0.92.5 (2060ec1f9f, 2020-04-08)"><metadata
   id="metadata981"><rdf:RDF><cc:Work
       rdf:about=""><dc:format>image/svg+xml</dc:format><dc:type
         rdf:resource="http://purl.org/dc/dcmitype/StillImage" /></cc:Work></rdf:RDF></metadata><defs
   id="defs979" /><sodipodi:namedview
   pagecolor="#ffffff"
   bordercolor="#666666"
   borderopacity="1"
   objecttolerance="10"
   gridtolerance="10"
   guidetolerance="10"
   inkscape:pageopacity="0"
   inkscape:pageshadow="2"
   inkscape:window-width="1344"
   inkscape:window-height="718"
   id="namedview977"
   showgrid="false"
   inkscape:zoom="1.1226011"
   inkscape:cx="244.076"
   inkscape:cy="244.076"
   inkscape:window-x="10"
   inkscape:window-y="38"
   inkscape:window-maximized="1"
   inkscape:current-layer="g942" />
<g
   id="g944">
	<g
   id="g942">
		
		
		
		
		
		
		<path
   d="M440.254,54.354v59.05c0,26.69-21.652,48.198-48.338,48.198h-30.493c-26.688,0-48.627-21.508-48.627-48.198V54.142    h-137.44v59.262c0,26.69-21.938,48.198-48.622,48.198H96.235c-26.685,0-48.336-21.508-48.336-48.198v-59.05    C24.576,55.057,5.411,74.356,5.411,98.077v346.061c0,24.167,19.588,44.015,43.755,44.015h389.82    c24.131,0,43.755-19.889,43.755-44.015V98.077C482.741,74.356,463.577,55.057,440.254,54.354z M426.091,422.588    c0,10.444-8.468,18.917-18.916,18.917H80.144c-10.448,0-18.916-8.473-18.916-18.917V243.835c0-10.448,8.467-18.921,18.916-18.921    h327.03c10.448,0,18.916,8.473,18.916,18.921L426.091,422.588L426.091,422.588z"
   id="path936" />
		<path
   d="M96.128,129.945h30.162c9.155,0,16.578-7.412,16.578-16.567V16.573C142.868,7.417,135.445,0,126.29,0H96.128    C86.972,0,79.55,7.417,79.55,16.573v96.805C79.55,122.533,86.972,129.945,96.128,129.945z"
   id="path938" />
		<path
   d="M361.035,129.945h30.162c9.149,0,16.572-7.412,16.572-16.567V16.573C407.77,7.417,400.347,0,391.197,0h-30.162    c-9.154,0-16.577,7.417-16.577,16.573v96.805C344.458,122.533,351.881,129.945,361.035,129.945z"
   id="path940" />
	</g>
</g>
<g
   id="g946">
</g>
<g
   id="g948">
</g>
<g
   id="g950">
</g>
<g
   id="g952">
</g>
<g
   id="g954">
</g>
<g
   id="g956">
</g>
<g
   id="g958">
</g>
<g
   id="g960">
</g>
<g
   id="g962">
</g>
<g
   id="g964">
</g>
<g
   id="g966">
</g>
<g
   id="g968">
</g>
<g
   id="g970">
</g>
<g
   id="g972">
</g>
<g
   id="g974">
</g>
</svg>