<svg width="44" height="120" viewBox="0 0 44 120" fill="none" xmlns="http://www.w3.org/2000/svg">
<path d="M14.8888 1.33331H18.4444V4.88887H14.8888V1.33331Z" fill="white"/>
<path d="M7.77774 19.1111H14.8888V22.6666H7.77774V19.1111Z" fill="white"/>
<path d="M18.4444 19.1111H36.2222V22.6666H18.4444V19.1111Z" fill="white"/>
<path d="M22 12H43.3333V15.5555H22V12Z" fill="white"/>
<path d="M32.6666 22.6666H36.2222V36.8889H32.6666V22.6666Z" fill="white"/>
<path d="M22 36.8889H25.5555V47.5555H22V36.8889Z" fill="white"/>
<path d="M22 33.3333H32.6666V36.8889H22V33.3333Z" fill="white"/>
<path d="M22 47.5555H36.2222V51.1111H22V47.5555Z" fill="white"/>
<path d="M22 47.5555H36.2222V51.1111H22V47.5555Z" fill="white"/>
<path d="M22 51.1111H29.1111V54.6666H22V51.1111Z" fill="white"/>
<path d="M22 58.2222H32.6666V61.7778H22V58.2222Z" fill="white"/>
<path d="M32.6666 61.7778H36.2222V108H32.6666V61.7778Z" fill="white"/>
<path d="M22 61.7778H32.6666V90.2222H22V61.7778Z" fill="white"/>
<path d="M22 54.6666H36.2222V58.2222H22V54.6666Z" fill="white"/>
<path d="M29.1111 40.4444H32.6666V44H29.1111V40.4444Z" fill="white"/>
<path d="M0.666626 58.2222H4.22218V61.7778H0.666626V58.2222Z" fill="white"/>
<path d="M0.666626 51.1111H4.22218V54.6666H0.666626V51.1111Z" fill="white"/>
<path d="M39.7777 40.4444H43.3333V44H39.7777V40.4444Z" fill="white"/>
<path d="M22 22.6666H32.6666V33.3333H22V22.6666Z" fill="white"/>
<path d="M39.7777 93.7778H43.3333V97.3333H39.7777V93.7778Z" fill="white"/>
<path d="M18.4444 100.889H32.6666V111.556H18.4444V100.889Z" fill="white"/>
<path d="M7.77774 108H18.4444V111.556H7.77774V108Z" fill="white"/>
<path d="M4.22218 115.111H22V118.667H4.22218V115.111Z" fill="white"/>
<path d="M25.5555 90.2222H32.6666V97.3333H25.5555V90.2222Z" fill="white"/>
<path d="M39.7777 15.5555H43.3333V36.8889H39.7777V15.5555Z" fill="white"/>
<path d="M39.7777 65.3333H43.3333V90.2222H39.7777V65.3333Z" fill="white"/>
<path d="M18.4444 22.6666H22V100.889H18.4444V22.6666Z" fill="white"/>
<path d="M7.77774 29.7778H14.8888V100.889H7.77774V29.7778Z" fill="white"/>
<path d="M0.666626 65.3333H4.22218V100.889H0.666626V65.3333Z" fill="white"/>
<path d="M0.666626 108H4.22218V118.667H0.666626V108Z" fill="white"/>
<path d="M14.8888 8.44442H18.4444V22.6666H14.8888V8.44442Z" fill="white"/>
<path d="M14.8888 22.6666V19.1111H7.77774V22.6666H14.8888ZM14.8888 22.6666H18.4444M14.8888 22.6666V8.44442H18.4444V22.6666M36.2222 22.6666V19.1111H18.4444V22.6666M36.2222 22.6666H18.4444M36.2222 22.6666H32.6666M36.2222 22.6666V36.8889H32.6666M18.4444 22.6666H22M18.4444 22.6666V100.889M43.3333 15.5555V12H22V15.5555H43.3333ZM43.3333 15.5555H39.7777V36.8889H43.3333V15.5555ZM32.6666 22.6666V36.8889M32.6666 22.6666H22M32.6666 22.6666V33.3333M32.6666 36.8889V33.3333M32.6666 36.8889H22M22 36.8889H25.5555V47.5555H22M22 36.8889V47.5555M22 36.8889V33.3333M22 47.5555H36.2222V51.1111H22M22 47.5555V51.1111M22 33.3333H32.6666M22 33.3333V22.6666M22 51.1111H29.1111V54.6666H22M22 51.1111V54.6666M22 54.6666H36.2222V58.2222H22M22 54.6666V58.2222M22 58.2222H32.6666V61.7778M22 58.2222V61.7778M32.6666 61.7778H22M32.6666 61.7778H36.2222V108H32.6666V61.7778ZM32.6666 61.7778V90.2222M22 61.7778V90.2222H32.6666M32.6666 90.2222H25.5555V97.3333H32.6666V90.2222ZM22 22.6666V100.889H18.4444M18.4444 100.889H32.6666V111.556H18.4444M18.4444 100.889V111.556M18.4444 111.556V108H7.77774V111.556H18.4444ZM4.22218 118.667H22V115.111H4.22218V118.667ZM4.22218 118.667V108H0.666626V118.667H4.22218ZM14.8888 1.33331H18.4444V4.88887H14.8888V1.33331ZM29.1111 40.4444H32.6666V44H29.1111V40.4444ZM0.666626 58.2222H4.22218V61.7778H0.666626V58.2222ZM0.666626 51.1111H4.22218V54.6666H0.666626V51.1111ZM39.7777 40.4444H43.3333V44H39.7777V40.4444ZM39.7777 93.7778H43.3333V97.3333H39.7777V93.7778ZM39.7777 65.3333H43.3333V90.2222H39.7777V65.3333ZM7.77774 29.7778H14.8888V100.889H7.77774V29.7778ZM0.666626 65.3333H4.22218V100.889H0.666626V65.3333Z" stroke="white"/>
</svg>
