<?xml version="1.0" encoding="iso-8859-1"?>
<!-- Generator: Adobe Illustrator 16.0.0, SVG Export Plug-In . SVG Version: 6.00 Build 0)  -->
<!DOCTYPE svg PUBLIC "-//W3C//DTD SVG 1.1//EN" "http://www.w3.org/Graphics/SVG/1.1/DTD/svg11.dtd">
<svg version="1.1" id="Capa_1" xmlns="http://www.w3.org/2000/svg" xmlns:xlink="http://www.w3.org/1999/xlink" x="0px" y="0px"
	 width="34px" height="34px" viewBox="0 0 34 34" style="enable-background:new 0 0 34 34;" xml:space="preserve">
<g>
	<path d="M17,0C7.611,0,0,7.61,0,17c0,9.391,7.611,17,17,17c9.389,0,17-7.609,17-17C34,7.61,26.389,0,17,0z M25.902,13.957
		c0.008,0.171,0.012,0.343,0.012,0.517c0,5.286-4.023,11.383-11.383,11.383c-2.26,0-4.362-0.662-6.133-1.797
		c0.314,0.037,0.632,0.055,0.955,0.055c1.875,0,3.599-0.639,4.968-1.711c-1.75-0.033-3.228-1.189-3.736-2.777
		c0.244,0.046,0.494,0.07,0.752,0.07c0.365,0,0.719-0.049,1.053-0.141c-1.828-0.367-3.208-1.986-3.208-3.925
		c0-0.016,0-0.031,0-0.049c0.541,0.3,1.157,0.479,1.813,0.5c-1.073-0.717-1.779-1.941-1.779-3.331c0-0.731,0.197-1.42,0.542-2.011
		c1.972,2.421,4.921,4.014,8.246,4.18c-0.068-0.293-0.104-0.598-0.104-0.911c0-2.209,1.791-4,4-4c1.148,0,2.189,0.485,2.92,1.263
		c0.91-0.18,1.768-0.513,2.541-0.969c-0.299,0.934-0.935,1.717-1.758,2.211c0.809-0.096,1.58-0.311,2.297-0.629
		C27.361,12.688,26.684,13.394,25.902,13.957z"/>
</g>
<g>
</g>
<g>
</g>
<g>
</g>
<g>
</g>
<g>
</g>
<g>
</g>
<g>
</g>
<g>
</g>
<g>
</g>
<g>
</g>
<g>
</g>
<g>
</g>
<g>
</g>
<g>
</g>
<g>
</g>
</svg>
